<svg xmlns="http://www.w3.org/2000/svg" xmlns:xlink="http://www.w3.org/1999/xlink" width="1920" height="1080" viewBox="0 0 1920 1080"><defs><clipPath id="b"><rect width="1920" height="1080"/></clipPath></defs><g id="a" clip-path="url(#b)"><rect width="1920" height="1080" fill="#fff"/><g transform="translate(-8)" fill="#3305d1"><path d="M 1644.165771484375 681.273681640625 C 1422.810791015625 681.2813110351563 1136.028930664063 611.9655151367188 883.0065307617188 550.8094482421875 C 789.7410278320313 528.26708984375 701.6478271484375 506.9747314453125 622.5859985351563 490.5105285644531 C 604.7365112304688 486.7934265136719 586.7633666992188 483.5160522460938 569.165771484375 480.7694702148438 C 552.1004638671875 478.1060485839844 534.9238891601563 475.8689575195313 518.1128540039063 474.1207885742188 C 501.8341674804688 472.4281616210938 485.45654296875 471.1476440429688 469.4349670410156 470.3150024414063 C 453.9454650878906 469.510009765625 438.3691711425781 469.1018371582031 423.13916015625 469.1018371582031 C 406.0138854980469 469.1018371582031 388.8260192871094 469.6176452636719 372.0525817871094 470.6344604492188 C 356.0081176757813 471.6073608398438 339.9165344238281 473.0647277832031 324.2249450683594 474.96630859375 C 309.2628479003906 476.7794799804688 294.2694396972656 479.0442199707031 279.6615295410156 481.6973571777344 C 265.7833862304688 484.2181701660156 251.8899536132813 487.155517578125 238.3673248291016 490.4281616210938 C 191.5831146240234 501.7497253417969 147.0431060791016 517.536865234375 105.9844284057617 537.3505249023438 C 89.85284423828125 545.13525390625 74.22626495361328 553.56787109375 59.53916168212891 562.4144897460938 C 47.78810882568359 569.4923706054688 36.60810852050781 576.8499755859375 26.30995178222656 584.2823486328125 C 11.80129814147949 594.7536010742188 3.119595766067505 602.4537963867188 0.4999519288539886 604.852783203125 L 0.4999519288539886 0.5 L 1933.6357421875 0.5 C 1934.35693359375 1.818483710289001 1937.785522460938 8.140117645263672 1942.909912109375 18.44105339050293 C 1948.227905273438 29.13105201721191 1956.511840820313 46.41447448730469 1965.775756835938 68.04552459716797 C 1976.187622070313 92.35684204101563 1985.690185546875 117.0921020507813 1994.019165039063 141.5644683837891 C 2004.4296875 172.1523742675781 2013.025756835938 202.4128875732422 2019.568603515625 231.5055236816406 C 2036.218872070313 305.5389404296875 2039.836791992188 372.5457763671875 2030.32177734375 430.6642150878906 C 2027.572265625 447.4576416015625 2023.673095703125 463.7213134765625 2018.732543945313 479.0036926269531 C 2013.532836914063 495.0873718261719 2007.036254882813 510.527099609375 1999.423095703125 524.8936767578125 C 1995.4775390625 532.3392333984375 1991.1494140625 539.65234375 1986.558959960938 546.6302490234375 C 1981.861572265625 553.77001953125 1976.7568359375 560.76025390625 1971.386840820313 567.4065551757813 C 1965.895751953125 574.2020874023438 1959.972045898438 580.8305053710938 1953.779907226563 587.1068725585938 C 1947.453125 593.520263671875 1940.667602539063 599.7473754882813 1933.61181640625 605.6155395507813 C 1925.502807617188 612.3594970703125 1916.647827148438 618.7352905273438 1907.292602539063 624.5657958984375 C 1898.1025390625 630.2931518554688 1888.170532226563 635.6563110351563 1877.771484375 640.5057983398438 C 1867.564453125 645.2662963867188 1856.618896484375 649.6665649414063 1845.239379882813 653.584716796875 C 1834.079467773438 657.4273681640625 1822.185424804688 660.9149780273438 1809.888671875 663.9510498046875 C 1797.840209960938 666.925537109375 1785.063110351563 669.550537109375 1771.912109375 671.75341796875 C 1759.040771484375 673.9094848632813 1745.445190429688 675.7223510742188 1731.50341796875 677.1416015625 C 1717.874389648438 678.5289306640625 1703.526000976563 679.5797119140625 1688.856811523438 680.2650146484375 C 1674.535766601563 680.9339599609375 1659.499633789063 681.2731323242188 1644.165771484375 681.273681640625 Z" stroke="none"/><path d="M 1 1 L 1 603.7245483398438 C 4.375244140625 600.6907958984375 12.77685546875 593.4329223632813 26.017333984375 583.8768310546875 C 36.326416015625 576.436279296875 47.51806640625 569.0712890625 59.281005859375 561.986083984375 C 73.9814453125 553.1318359375 89.62158203125 544.6915893554688 105.76708984375 536.9002685546875 C 146.8575439453125 517.071044921875 191.4312744140625 501.2720947265625 238.2496337890625 489.9421081542969 C 251.78173828125 486.6673583984375 265.6846923828125 483.7279052734375 279.572021484375 481.2055358886719 C 294.18994140625 478.5502624511719 309.193115234375 476.2842102050781 324.1646728515625 474.4700012207031 C 339.8662109375 472.5673828125 355.9678955078125 471.1089477539063 372.0223388671875 470.1355285644531 C 388.8057861328125 469.1178894042969 406.00390625 468.6018371582031 423.13916015625 468.6018371582031 C 438.3778076171875 468.6018371582031 453.962890625 469.01025390625 469.460693359375 469.8155212402344 C 485.4912109375 470.648681640625 501.8775634765625 471.9297485351563 518.1644287109375 473.6236877441406 C 534.98388671875 475.3726196289063 552.169189453125 477.6105346679688 569.2427978515625 480.2755126953125 C 586.8486328125 483.0234069824219 604.8302001953125 486.3020935058594 622.6881103515625 490.0210571289063 C 701.754638671875 506.486328125 789.84814453125 527.777587890625 883.1138916015625 550.3194580078125 C 1136.112548828125 611.4671020507813 1422.867309570313 680.773681640625 1644.165771484375 680.773681640625 C 1659.491455078125 680.773681640625 1674.52001953125 680.4347534179688 1688.833374023438 679.7666015625 C 1703.493408203125 679.0820922851563 1717.83251953125 678.0323486328125 1731.45263671875 676.6458129882813 C 1745.383666992188 675.2279052734375 1758.968383789063 673.4163208007813 1771.8291015625 671.2620849609375 C 1784.9677734375 669.0613403320313 1797.732299804688 666.438720703125 1809.768310546875 663.4671020507813 C 1822.051025390625 660.4347534179688 1833.93017578125 656.9510498046875 1845.076293945313 653.1131591796875 C 1856.439453125 649.2002563476563 1867.368408203125 644.8065795898438 1877.559936523438 640.0534057617188 C 1887.9404296875 635.2120971679688 1897.85498046875 629.8583984375 1907.02783203125 624.1416015625 C 1916.363891601563 618.3231201171875 1925.200439453125 611.9608154296875 1933.291748046875 605.2310791015625 C 1940.334716796875 599.3736572265625 1947.10791015625 593.1581420898438 1953.4228515625 586.7568359375 C 1959.602783203125 580.4923706054688 1965.515258789063 573.8770751953125 1970.995727539063 567.094482421875 C 1976.355712890625 560.4610595703125 1981.450439453125 553.4847412109375 1986.138671875 546.3589477539063 C 1990.720458984375 539.394775390625 1995.04052734375 532.0955200195313 1998.978637695313 524.6644287109375 C 2006.577880859375 510.32421875 2013.063110351563 494.9126281738281 2018.254150390625 478.8573608398438 C 2023.187255859375 463.6000061035156 2027.080688476563 447.3618469238281 2029.826293945313 430.5942077636719 C 2039.332275390625 372.5421142578125 2035.718627929688 305.6029052734375 2019.08544921875 231.6360473632813 C 2012.54736328125 202.5613403320313 2003.95703125 172.3186645507813 1993.553344726563 141.7481689453125 C 1985.228881835938 117.287353515625 1975.731567382813 92.56341552734375 1965.32470703125 68.26287841796875 C 1956.06494140625 46.6402587890625 1947.784423828125 29.3631591796875 1942.468627929688 18.6773681640625 C 1937.623413085938 8.93731689453125 1934.294921875 2.7562255859375 1933.338623046875 1 L 1 1 M 0 0 L 1933.931274414063 0 C 1933.931274414063 0 2163.585693359375 415 1933.931274414063 606 C 1868.037475585938 660.8029174804688 1765.9521484375 681.7738037109375 1644.165771484375 681.7738037109375 C 1341.500244140625 681.7738037109375 916.9658203125 552.3243408203125 622.484130859375 491 C 549.7144775390625 475.8460693359375 483.24072265625 469.6018371582031 423.13916015625 469.6018371582031 C 142.158203125 469.6018371582031 0 606 0 606 L 0 0 Z" stroke="none" fill="#707070"/></g></g></svg>