<svg xmlns="http://www.w3.org/2000/svg" xmlns:xlink="http://www.w3.org/1999/xlink" width="1920" height="1080" viewBox="0 0 1920 1080"><defs><clipPath id="b"><rect width="1920" height="1080"/></clipPath></defs><g id="a" clip-path="url(#b)"><rect width="1920" height="1080" fill="#fff"/><g transform="translate(-8)" fill="#3305d1"><path d="M 73.45175170898438 992.697998046875 C 71.34974670410156 992.697998046875 69.27850341796875 992.3082275390625 67.29550170898438 991.5394897460938 C 65.27149963378906 990.7547607421875 63.27375030517578 989.5499877929688 61.35725021362305 987.958740234375 C 57.41275024414063 984.6832275390625 53.61949920654297 979.604736328125 50.08300018310547 972.864501953125 C 46.44475173950195 965.9297485351563 42.94824981689453 956.9879760742188 39.69100189208984 946.2874755859375 C 36.36724853515625 935.3679809570313 33.17350006103516 922.2274780273438 30.19924926757813 907.2310180664063 C 27.17900085449219 892.0032348632813 24.27799987792969 874.3255004882813 21.57724952697754 854.6890258789063 C 18.84524917602539 834.8267211914063 16.22299957275391 812.270263671875 13.7832498550415 787.645751953125 C 11.32374954223633 762.822265625 8.965000152587891 735.0435180664063 6.772500038146973 705.0809936523438 C 4.569250106811523 674.9697265625 2.458499908447266 641.624755859375 0.4992499947547913 605.9724731445313 C -13.03575038909912 359.6820068359375 -21.13974952697754 176.4797515869141 -23.58774948120117 61.45449829101563 C -24.61300086975098 13.27324962615967 -24.64900016784668 -23.35099983215332 -23.69449996948242 -47.4015007019043 C -23.26700019836426 -58.17150115966797 -22.63375091552734 -66.58499908447266 -21.8117504119873 -72.40799713134766 C -20.88574981689453 -78.97000122070313 -19.85874938964844 -81.22675323486328 -19.16049957275391 -81.96450042724609 C -18.96324920654297 -82.17275238037109 -18.77400016784668 -82.27850341796875 -18.59749984741211 -82.27850341796875 C -18.29649925231934 -82.27850341796875 -17.45450019836426 -81.96074676513672 -16.13800048828125 -79.01775360107422 C -15.18900012969971 -76.89624786376953 -14.15474987030029 -73.76650238037109 -13.06424999237061 -69.71524810791016 C -11.2194995880127 -62.86349868774414 -9.187999725341797 -53.30424880981445 -7.026249885559082 -41.30324935913086 C -3.342999935150146 -20.85600090026855 -0.5235000252723694 -0.1397500038146973 -0.4954999983310699 0.06724999845027924 L -0.4367499947547913 0.5 L 0 0.5 L 1933.484741210938 0.5 C 1934.004516601563 5.117827415466309 1938.4931640625 45.15217971801758 1944.416015625 103.1662521362305 C 1950.204467773438 159.8617553710938 1958.585205078125 245.8092498779297 1965.639526367188 333.2959899902344 C 1973.567993164063 431.6232604980469 1978.239501953125 511.8125 1979.524047851563 571.635986328125 C 1980.286743164063 607.1455078125 1979.848754882813 635.7764892578125 1978.222778320313 656.7335205078125 C 1976.441284179688 679.6925048828125 1973.209716796875 693.9450073242188 1968.617797851563 699.0947265625 C 1967.336303710938 700.531982421875 1965.994506835938 701.2319946289063 1964.516235351563 701.2344970703125 C 1964.51318359375 701.2344970703125 1964.509887695313 701.2344970703125 1964.5068359375 701.2344970703125 C 1963.76904296875 701.2344970703125 1963.015869140625 701.0599975585938 1962.204467773438 700.7017211914063 L 1961.682250976563 700.4712524414063 L 1961.5224609375 701.0192260742188 C 1960.877319335938 703.230712890625 1960.593017578125 706.1092529296875 1960.670288085938 709.6188354492188 C 1957.400634765625 694.7326049804688 1950.167236328125 664.4493408203125 1934.414306640625 605.8702392578125 L 1934.381958007813 605.74951171875 L 1934.296508789063 605.6585083007813 C 1906.045043945313 575.4650268554688 1877.89794921875 547.0502319335938 1850.636962890625 521.2034912109375 C 1824.055297851563 496.00048828125 1797.549560546875 472.5119934082031 1771.85546875 451.3905029296875 C 1746.844970703125 430.8309936523438 1721.878540039063 411.9175109863281 1697.649291992188 395.1759948730469 C 1674.112548828125 378.9127502441406 1650.583740234375 364.2239990234375 1627.716796875 351.5174865722656 C 1616.543212890625 345.3089904785156 1605.286254882813 339.4389953613281 1594.258544921875 334.0712585449219 C 1583.409545898438 328.7904968261719 1572.473999023438 323.8454895019531 1561.755493164063 319.3735046386719 C 1551.21875 314.9772644042969 1540.592041015625 310.9129943847656 1530.170532226563 307.2937622070313 C 1519.933715820313 303.7387390136719 1509.603271484375 300.5119934082031 1499.465454101563 297.7025146484375 C 1489.516967773438 294.9454956054688 1479.469970703125 292.5117492675781 1469.603759765625 290.46923828125 C 1459.931274414063 288.4667358398438 1450.155517578125 286.7827453613281 1440.547973632813 285.4639892578125 C 1421.947509765625 282.9107360839844 1403.159545898438 281.6162414550781 1384.705810546875 281.6162414550781 C 1368.499267578125 281.6162414550781 1352.057983398438 282.614501953125 1335.838745117188 284.5830078125 C 1320.409545898438 286.4557495117188 1304.679809570313 289.2680053710938 1289.086791992188 292.9417419433594 C 1274.3740234375 296.4079895019531 1259.277954101563 300.7607421875 1244.218017578125 305.8792419433594 C 1230.171508789063 310.6532592773438 1215.630737304688 316.2730102539063 1200.999755859375 322.5824890136719 C 1144.382446289063 346.9985046386719 1091.288452148438 379.4382629394531 1039.942504882813 410.8099975585938 C 1016.969482421875 424.8462524414063 993.2142333984375 439.3605041503906 970.0082397460938 452.5775146484375 C 957.5342407226563 459.6822509765625 946.14697265625 465.8930053710938 935.1957397460938 471.5647583007813 C 922.927978515625 477.9182434082031 911.4974975585938 483.4482421875 900.251220703125 488.4704895019531 C 888.2002563476563 493.8525085449219 876.3394775390625 498.6344909667969 864.999267578125 502.6835021972656 C 852.8907470703125 507.0069885253906 840.8674926757813 510.67724609375 829.2630004882813 513.592529296875 C 817.0145263671875 516.6697387695313 804.7687377929688 519.0230102539063 792.86572265625 520.5872802734375 C 780.4032592773438 522.2249755859375 767.874755859375 523.0562744140625 755.6279907226563 523.0579833984375 C 755.6156616210938 523.0579833984375 755.6019897460938 523.0579833984375 755.5896606445313 523.0579833984375 C 744.9779663085938 523.0580444335938 734.260009765625 522.4360961914063 723.730224609375 521.208984375 C 712.8677368164063 519.9432373046875 701.8622436523438 517.9935302734375 691.0194702148438 515.4142456054688 C 679.8777465820313 512.7637329101563 668.5604858398438 509.3657531738281 657.3817749023438 505.3147583007813 C 645.9212646484375 501.1614990234375 634.2540283203125 496.1942443847656 622.7037353515625 490.5507507324219 C 615.186279296875 486.8777465820313 607.5857543945313 483.6300048828125 600.1129760742188 480.8980102539063 C 592.7650146484375 478.2114868164063 585.3367309570313 475.9490051269531 578.0344848632813 474.1732482910156 C 570.8577270507813 472.4282531738281 563.603271484375 471.104736328125 556.4730224609375 470.23974609375 C 549.46875 469.3900146484375 542.3900146484375 468.9590148925781 535.4334716796875 468.9590148925781 C 525.8252563476563 468.9590148925781 516.1190185546875 469.7789916992188 506.5845031738281 471.396240234375 C 497.3152465820313 472.968505859375 487.9472351074219 475.3382568359375 478.7407531738281 478.4402465820313 C 469.8064880371094 481.4502563476563 460.7720031738281 485.2349853515625 451.8882446289063 489.6887512207031 C 443.2839965820313 494.0022583007813 434.5772399902344 499.0660095214844 426.0097351074219 504.739013671875 C 417.7304992675781 510.2212524414063 409.3450012207031 516.4292602539063 401.0862426757813 523.1902465820313 C 393.1264953613281 529.7064819335938 385.0555114746094 536.9237670898438 377.0979919433594 544.6417236328125 C 369.4522399902344 552.0572509765625 361.6892395019531 560.1500244140625 354.0247497558594 568.6952514648438 C 346.6887512207031 576.8740234375 339.2269897460938 585.7080078125 331.8467407226563 594.9520263671875 C 306.03125 627.2869873046875 279.8179931640625 666.2462768554688 251.7089996337891 714.0560302734375 C 227.2015075683594 755.73974609375 204.4635009765625 798.6900024414063 184.4019927978516 836.583984375 C 172.7927551269531 858.5127563476563 161.8274993896484 879.2252197265625 151.4459991455078 897.99072265625 C 139.8285064697266 918.99072265625 130.4889984130859 934.7559814453125 122.0537490844727 947.60498046875 C 112.2697525024414 962.5087280273438 103.7647476196289 973.34375 96.05225372314453 980.729248046875 C 91.94625091552734 984.6610107421875 87.99600219726563 987.65673828125 84.31075286865234 989.6332397460938 C 80.51899719238281 991.666748046875 76.86550140380859 992.697998046875 73.45175170898438 992.697998046875 Z" stroke="none"/><path d="M -18.595458984375 -81.778076171875 C -18.624267578125 -81.767333984375 -18.9840087890625 -81.609619140625 -19.476806640625 -80.4610595703125 C -19.962158203125 -79.3299560546875 -20.4178466796875 -77.61474609375 -20.8310546875 -75.3634033203125 C -21.7342529296875 -70.4439697265625 -22.4468994140625 -62.87451171875 -22.949462890625 -52.86474609375 C -24.080322265625 -30.3468017578125 -24.185791015625 5.208740234375 -23.26318359375 52.813720703125 C -21.0455322265625 167.2591552734375 -12.8826904296875 353.3594970703125 0.9984130859375 605.9450073242188 C 2.9576416015625 641.59423828125 5.068115234375 674.93603515625 7.2713623046875 705.0447387695313 C 9.46337890625 735.0029296875 11.8218994140625 762.777099609375 14.28076171875 787.5963134765625 C 16.719970703125 812.2147216796875 19.341552734375 834.7650146484375 22.0726318359375 854.6207885742188 C 24.7720947265625 874.2476196289063 27.6712646484375 891.91552734375 30.689697265625 907.1336669921875 C 33.6610107421875 922.1139526367188 36.8505859375 935.2384033203125 40.16943359375 946.141845703125 C 43.4176025390625 956.8123779296875 46.902099609375 965.7249755859375 50.5260009765625 972.632080078125 C 54.0316162109375 979.313720703125 57.783203125 984.3408203125 61.6768798828125 987.573974609375 C 63.5516357421875 989.1307983398438 65.5029296875 990.3081665039063 67.476318359375 991.0731201171875 C 69.4013671875 991.8194580078125 71.411865234375 992.1978759765625 73.4517822265625 992.1978759765625 C 76.7823486328125 992.1978759765625 80.3563232421875 991.1868286132813 84.074462890625 989.192626953125 C 87.7197265625 987.2373657226563 91.6334228515625 984.2684326171875 95.706298828125 980.3681640625 C 103.391357421875 973.0092163085938 111.8729248046875 962.202392578125 121.6357421875 947.330810546875 C 130.06396484375 934.4923706054688 139.3970947265625 918.7373657226563 151.0084228515625 897.7489624023438 C 161.3875732421875 878.9873657226563 172.351806640625 858.27685546875 183.9599609375 836.3502197265625 C 204.023681640625 798.4515380859375 226.7647705078125 755.49609375 251.277587890625 713.8026123046875 C 279.39892578125 665.9723510742188 305.62548828125 626.9939575195313 331.4560546875 594.6402587890625 C 338.8421630859375 585.3889770507813 346.31005859375 576.54736328125 353.65234375 568.361572265625 C 361.32470703125 559.8076171875 369.0958251953125 551.7066040039063 376.749755859375 544.2831420898438 C 384.7174072265625 536.5552368164063 392.7987060546875 529.3284301757813 400.76953125 522.8034057617188 C 409.041015625 516.0318603515625 417.4403076171875 509.81396484375 425.7333984375 504.3223876953125 C 434.31787109375 498.63818359375 443.0421142578125 493.564208984375 451.6639404296875 489.2418212890625 C 460.5684814453125 484.7776489257813 469.624755859375 480.9839477539063 478.5810546875 477.966552734375 C 487.8121337890625 474.8563232421875 497.205810546875 472.47998046875 506.500732421875 470.9034423828125 C 516.0628662109375 469.2815551757813 525.797119140625 468.459228515625 535.4334716796875 468.459228515625 C 542.4100341796875 468.459228515625 549.5091552734375 468.8912963867188 556.533203125 469.743408203125 C 563.682861328125 470.6107788085938 570.956787109375 471.9376220703125 578.152587890625 473.6876220703125 C 585.47314453125 475.4676513671875 592.919189453125 477.7357788085938 600.2847900390625 480.4284057617188 C 607.773681640625 483.1663208007813 615.3902587890625 486.4207763671875 622.9232177734375 490.1015625 C 634.456787109375 495.73681640625 646.107666015625 500.6968383789063 657.5521240234375 504.8436889648438 C 668.712158203125 508.8876342773438 680.0111083984375 512.2794799804688 691.13525390625 514.925537109375 C 701.9578857421875 517.499755859375 712.9442138671875 519.446044921875 723.7882080078125 520.7100219726563 C 734.31005859375 521.9363403320313 745.0225830078125 522.5581665039063 755.628173828125 522.5581665039063 C 767.85400390625 522.5581665039063 780.361328125 521.729736328125 792.8028564453125 520.0960693359375 C 804.6876220703125 518.5355224609375 816.9150390625 516.1868286132813 829.145751953125 513.114990234375 C 840.7349853515625 510.2042236328125 852.74365234375 506.5389404296875 864.837646484375 502.2213134765625 C 876.1666259765625 498.1768188476563 888.0157470703125 493.3997192382813 900.0560302734375 488.0228881835938 C 911.2939453125 483.0042114257813 922.716552734375 477.4781494140625 934.976318359375 471.12841796875 C 945.922119140625 465.45947265625 957.304443359375 459.2513427734375 969.7734375 452.1492309570313 C 992.9741821289063 438.9344482421875 1016.727661132813 424.4207763671875 1039.69873046875 410.384765625 C 1091.05712890625 379.003662109375 1144.164184570313 346.55419921875 1200.811279296875 322.1239624023438 C 1215.453369140625 315.8092041015625 1230.006103515625 310.1844482421875 1244.064453125 305.4060668945313 C 1259.138916015625 300.2823486328125 1274.249755859375 295.9249877929688 1288.97705078125 292.4550170898438 C 1304.58740234375 288.777099609375 1320.33447265625 285.9616088867188 1335.781005859375 284.0868530273438 C 1352.01953125 282.1157836914063 1368.47998046875 281.1163330078125 1384.705810546875 281.1163330078125 C 1403.18212890625 281.1163330078125 1421.992919921875 282.412353515625 1440.61572265625 284.9686889648438 C 1450.234741210938 286.2889404296875 1460.021606445313 287.9749755859375 1469.705322265625 289.979736328125 C 1479.58203125 292.0244750976563 1489.640014648438 294.4608154296875 1499.599243164063 297.2207641601563 C 1509.746826171875 300.0328979492188 1520.087646484375 303.26318359375 1530.33447265625 306.8215942382813 C 1540.765502929688 310.4439697265625 1551.40185546875 314.5118408203125 1561.948120117188 318.912109375 C 1572.67529296875 323.3876342773438 1583.619750976563 328.3368530273438 1594.477294921875 333.621826171875 C 1605.51318359375 338.993408203125 1616.778198242188 344.8676147460938 1627.95947265625 351.0805053710938 C 1650.840576171875 363.7947387695313 1674.383178710938 378.4923706054688 1697.933349609375 394.7647094726563 C 1722.174194335938 411.5142211914063 1747.15185546875 430.435791015625 1772.1728515625 451.0042114257813 C 1797.875732421875 472.1334228515625 1824.390747070313 495.6297607421875 1850.981079101563 520.8407592773438 C 1878.248901367188 546.6944580078125 1906.403198242188 575.1163330078125 1934.66162109375 605.3168334960938 L 1934.832153320313 605.4992065429688 L 1934.897094726563 605.740234375 C 1949.355590820313 659.5060424804688 1956.637573242188 689.4337158203125 1960.265747070313 705.5032348632813 C 1960.399536132813 703.73876953125 1960.658447265625 702.1952514648438 1961.042358398438 700.8792114257813 L 1961.362060546875 699.7831420898438 L 1962.406372070313 700.2445068359375 C 1963.152954101563 700.57421875 1963.843383789063 700.7344970703125 1964.516845703125 700.7344970703125 C 1965.84423828125 700.7344970703125 1967.063720703125 700.091796875 1968.244506835938 698.7697143554688 C 1970.513427734375 696.229736328125 1972.473388671875 691.3084106445313 1974.0703125 684.1426391601563 C 1975.623413085938 677.1731567382813 1976.852661132813 667.9484252929688 1977.723999023438 656.7247314453125 C 1979.3486328125 635.7889404296875 1979.786376953125 607.1781616210938 1979.024169921875 571.6865844726563 C 1977.739990234375 511.8757934570313 1973.068969726563 431.6947631835938 1965.141357421875 333.3710327148438 C 1958.08740234375 245.8828735351563 1949.706787109375 159.9305419921875 1943.918701171875 103.2313232421875 C 1938.15380859375 46.7576904296875 1933.74755859375 7.3193359375 1933.03759765625 1 L 0 1 L -0.8736572265625 1 L -0.9910888671875 0.134521484375 C -1.0189208984375 -0.071533203125 -3.824951171875 -20.6884765625 -7.4942626953125 -41.0799560546875 C -9.6463623046875 -53.0400390625 -11.6689453125 -62.5792236328125 -13.5057373046875 -69.432373046875 C -14.58740234375 -73.4678955078125 -15.611328125 -76.5899658203125 -16.5491943359375 -78.7117919921875 C -17.8154296875 -81.5771484375 -18.5484619140625 -81.7691650390625 -18.595458984375 -81.778076171875 M -18.5975341796875 -82.7784423828125 C -11.2242431640625 -82.7784423828125 0 0 0 0 L 1933.931274414063 0 C 1933.931274414063 0 2013.347900390625 701.7345581054688 1964.516845703125 701.7345581054688 C 1963.7109375 701.7345581054688 1962.879028320313 701.5462646484375 1962.002319335938 701.1591796875 C 1960.2314453125 707.2296142578125 1961.816528320313 717.1072998046875 1961.755004882813 717.1072998046875 C 1961.663452148438 717.1072998046875 1957.912841796875 695.1781005859375 1933.931274414063 606 C 1704.1171875 360.3907470703125 1529.600219726563 282.1162719726563 1384.705688476563 282.1162719726563 C 1130.1923828125 282.1162719726563 966.978271484375 523.55810546875 755.6280517578125 523.55810546875 C 713.51318359375 523.55810546875 669.526123046875 513.98486328125 622.4842529296875 491 C 592.082763671875 476.145751953125 563.054931640625 469.4591064453125 535.4334716796875 469.4591064453125 C 290.6602783203125 469.4591064453125 152.41552734375 993.1978759765625 73.45166015625 993.1978759765625 C 38.95166015625 993.1978759765625 15.78759765625 893.2778930664063 0 606 C -30.92578125 43.26123046875 -27.69140625 -82.7784423828125 -18.5975341796875 -82.7784423828125 Z" stroke="none" fill="#707070"/></g></g></svg>