<svg xmlns="http://www.w3.org/2000/svg" xmlns:xlink="http://www.w3.org/1999/xlink" width="1920" height="1080" viewBox="0 0 1920 1080">
  <defs>
    <clipPath id="clip-Web_1920_1">
      <rect width="1920" height="1080"/>
    </clipPath>
  </defs>
  <g id="Web_1920_1" data-name="Web 1920 – 1" clip-path="url(#clip-Web_1920_1)">
    <rect width="1920" height="1080" fill="#fff"/>
    <g id="Path_1" data-name="Path 1" transform="translate(-201.287 -409)" fill="#2300b5">
      <path d="M 879.244140625 1294.237060546875 C 867.6688842773438 1294.237060546875 855.7329711914063 1293.405883789063 843.7685546875 1291.766723632813 C 832.1756591796875 1290.178833007813 820.0968017578125 1287.7685546875 807.86767578125 1284.603515625 C 784.8556518554688 1278.647338867188 760.3500366210938 1269.839721679688 732.9512329101563 1257.6767578125 C 681.0000610351563 1234.614990234375 623.9385986328125 1201.820556640625 557.8665161132813 1163.84765625 C 510.2465209960938 1136.479370117188 456.272705078125 1105.459350585938 395.949462890625 1073.397338867188 C 326.6568603515625 1036.567993164063 260.03466796875 1004.243713378906 192.2750701904297 974.577392578125 C 163.3355102539063 941.698974609375 136.6951599121094 907.5849609375 113.0944671630859 873.18408203125 C 89.62416839599609 838.97265625 69.27652740478516 804.6488037109375 52.61652374267578 771.1658935546875 C 35.79769897460938 737.3643798828125 22.82064056396484 704.5823364257813 14.04505348205566 673.7305908203125 C 5.057405948638916 642.132080078125 0.5000531077384949 612.6199951171875 0.5000531077384949 586.0135498046875 C 0.5000531077384949 576.0011596679688 0.9938766956329346 565.8714599609375 1.967994332313538 555.9058837890625 C 2.934758901596069 546.0164794921875 4.400641441345215 536.0194091796875 6.324759006500244 526.1932373046875 C 8.235053062438965 516.4379272460938 10.64917087554932 506.5858764648438 13.49975872039795 496.9108581542969 C 16.33093643188477 487.3020629882813 19.66946411132813 477.6067504882813 23.42270088195801 468.0950012207031 C 27.15181732177734 458.6444091796875 31.3912296295166 449.1185302734375 36.02328872680664 439.7817687988281 C 40.62770080566406 430.50146484375 45.74446487426758 421.1570434570313 51.23152542114258 412.0082397460938 C 62.12269973754883 393.8485107421875 74.89328765869141 375.7538146972656 89.18858337402344 358.2267456054688 C 103.3535842895508 340.8591003417969 119.348876953125 323.639404296875 136.7303466796875 307.0464477539063 C 153.9900512695313 290.5693969726563 173.0197601318359 274.3249816894531 193.2906341552734 258.764404296875 C 213.4656372070313 243.2776336669922 235.3388824462891 228.1085205078125 258.3032836914063 213.6779327392578 C 281.2127075195313 199.2817535400391 305.7385864257813 185.2873382568359 331.199462890625 172.0832214355469 C 356.6618041992188 158.8785247802734 383.649169921875 146.1588134765625 411.4118041992188 134.2767486572266 C 439.2435913085938 122.3652877807617 468.501220703125 111.0191116333008 498.3715209960938 100.5538177490234 C 528.3880004882813 90.03734588623047 559.7244873046875 80.16469573974609 591.5106201171875 71.20999145507813 C 623.5247802734375 62.19087219238281 656.7491455078125 53.89087295532227 690.2600708007813 46.540283203125 C 724.08447265625 39.12087249755859 759.0050659179688 32.49263763427734 794.0521240234375 26.83969688415527 C 829.4965209960938 21.12234306335449 865.9224243164063 16.26528549194336 902.3182983398438 12.40293216705322 C 939.1918334960938 8.489991188049316 976.9318237304688 5.502932071685791 1014.490356445313 3.524696588516235 C 1052.6005859375 1.517637848854065 1091.4638671875 0.4999908208847046 1130 0.4999908208847046 C 1151.035400390625 0.4999908208847046 1172.827392578125 1.347931981086731 1194.77099609375 3.02028489112854 C 1216.154418945313 4.649991035461426 1238.26123046875 7.10675573348999 1260.477416992188 10.32205009460449 C 1282.108032226563 13.45263767242432 1304.42626953125 17.38704872131348 1326.812377929688 22.01616668701172 C 1348.589111328125 26.51910781860352 1371.015625 31.80028533935547 1393.468872070313 37.71322631835938 C 1415.29150390625 43.45999145507813 1437.723022460938 49.95705032348633 1460.140625 57.02410888671875 C 1481.908325195313 63.88616561889648 1504.241577148438 71.46793365478516 1526.520385742188 79.55910491943359 C 1548.132690429688 87.40792846679688 1570.264770507813 95.94351959228516 1592.301513671875 104.92822265625 C 1613.658935546875 113.6361694335938 1635.486206054688 122.9941101074219 1657.177734375 132.7423400878906 C 1737.555053710938 168.8647003173828 1819.755615234375 211.8991088867188 1901.495971679688 260.6499938964844 C 1938.11328125 282.4888000488281 1974.704223632813 305.5311584472656 2010.251831054688 329.1367492675781 C 2043.393310546875 351.1441040039063 2075.877685546875 373.8038024902344 2106.802734375 396.4864501953125 C 2139.78564453125 420.6785278320313 2170.77001953125 444.7344055175781 2198.89453125 467.9855651855469 C 2225.383056640625 489.8843994140625 2248.607421875 510.4582214355469 2267.922607421875 529.1358642578125 C 2277.21484375 538.1211547851563 2285.521728515625 546.6011962890625 2292.613037109375 554.3397216796875 C 2299.644287109375 562.0132446289063 2305.53564453125 569.0179443359375 2310.123046875 575.15966796875 C 2314.7080078125 581.2979125976563 2318.021484375 586.6146850585938 2319.971923828125 590.9623413085938 C 2321.90771484375 595.2781982421875 2322.506591796875 598.636474609375 2321.751220703125 600.9443969726563 C 2321.33056640625 602.22998046875 2320.50732421875 603.1732177734375 2319.234375 603.82763671875 C 2317.90966796875 604.5090942382813 2316.098876953125 604.85498046875 2313.85205078125 604.8555908203125 C 2313.849365234375 604.8555908203125 2313.8466796875 604.8555908203125 2313.843994140625 604.8555908203125 C 2309.0400390625 604.8556518554688 2302.197021484375 603.2903442382813 2293.504150390625 600.2029418945313 C 2284.420166015625 596.97705078125 2273.22265625 592.0523681640625 2260.223388671875 585.566162109375 C 2247.989990234375 579.4623413085938 2235.368408203125 574.0635375976563 2222.708984375 569.52001953125 C 2210.186767578125 565.0255737304688 2197.26708984375 561.238525390625 2184.30908203125 558.2640991210938 C 2171.5 555.3237915039063 2158.2841796875 553.0929565429688 2145.028564453125 551.6329345703125 C 2131.934814453125 550.191162109375 2118.424072265625 549.4599609375 2104.871826171875 549.4599609375 C 2088.37158203125 549.4599609375 2071.27001953125 550.5435180664063 2054.0419921875 552.68115234375 C 2037.113037109375 554.7814331054688 2019.560668945313 557.961181640625 2001.872436523438 562.1326293945313 C 1984.516479492188 566.2255859375 1966.513305664063 571.39501953125 1948.362060546875 577.4970703125 C 1930.58154296875 583.4746704101563 1912.126220703125 590.5267333984375 1893.508911132813 598.4573364257813 C 1875.306274414063 606.2114868164063 1856.39794921875 615.0399780273438 1837.31005859375 624.6976318359375 C 1818.688598632813 634.119384765625 1799.326782226563 644.617919921875 1779.762939453125 655.9020385742188 C 1760.727416992188 666.8811645507813 1740.911499023438 678.944091796875 1720.865356445313 691.7550048828125 C 1701.42236328125 704.1806030273438 1681.151245117188 717.701171875 1660.61474609375 731.9414672851563 C 1640.773559570313 745.69970703125 1620.046264648438 760.5726318359375 1599.008911132813 776.146728515625 C 1578.78271484375 791.1203002929688 1557.598876953125 807.2393798828125 1536.0458984375 824.0556030273438 C 1495.5615234375 855.6432495117188 1453.036254882813 890.2079467773438 1406.040893554688 929.7252807617188 C 1365.163818359375 964.09765625 1320.85595703125 1002.272644042969 1270.585327148438 1046.43115234375 C 1220.290405273438 1090.61181640625 1168.856567382813 1136.560302734375 1129.66650390625 1171.655029296875 C 1081.144775390625 1215.105834960938 1037.57275390625 1245.870849609375 996.4606323242188 1265.707641601563 C 986.3400268554688 1270.591186523438 976.1797485351563 1274.890258789063 966.2615356445313 1278.486450195313 C 956.445068359375 1282.045532226563 946.5400390625 1285.033813476563 936.821533203125 1287.368530273438 C 927.229736328125 1289.67236328125 917.498291015625 1291.416748046875 907.8970947265625 1292.552612304688 C 898.4512329101563 1293.670288085938 888.8109130859375 1294.237060546875 879.244140625 1294.237060546875 Z" stroke="none"/>
      <path d="M 1130 1 C 1091.472412109375 1 1052.618286132813 2.017333984375 1014.516845703125 4.0240478515625 C 976.966796875 6.001708984375 939.235595703125 8.9879150390625 902.3712158203125 12.9000244140625 C 865.984130859375 16.761474609375 829.567138671875 21.61767578125 794.1318359375 27.333251953125 C 759.0938720703125 32.9849853515625 724.182373046875 39.6114501953125 690.367431640625 47.028564453125 C 656.8656005859375 54.3770751953125 623.6512451171875 62.6746826171875 591.646240234375 71.691162109375 C 559.8699951171875 80.6431884765625 528.5435791015625 90.5126953125 498.536865234375 101.025634765625 C 468.6771240234375 111.4873046875 439.4300537109375 122.8291015625 411.608642578125 134.7364501953125 C 383.8570556640625 146.613525390625 356.8812255859375 159.3282470703125 331.4296875 172.527099609375 C 305.98095703125 185.7247314453125 281.467041015625 199.71240234375 258.569091796875 214.1011962890625 C 235.618408203125 228.5235595703125 213.7578125 243.683837890625 193.595458984375 259.1611328125 C 173.33837890625 274.7108154296875 154.322509765625 290.9434814453125 137.075439453125 307.407958984375 C 119.709228515625 323.987060546875 103.72802734375 341.191162109375 89.575927734375 358.5426025390625 C 75.2958984375 376.051513671875 62.5390625 394.12646484375 51.660400390625 412.2652587890625 C 46.179931640625 421.4029541015625 41.06982421875 430.735595703125 36.47119140625 440.0040893554688 C 31.845458984375 449.3279418945313 27.61181640625 458.8408813476563 23.8876953125 468.2785034179688 C 20.14013671875 477.7764892578125 16.80615234375 487.4573364257813 13.9794921875 497.0520629882813 C 11.133056640625 506.7123413085938 8.72265625 516.5493774414063 6.8154296875 526.2891235351563 C 4.894287109375 536.0999755859375 3.4306640625 546.0808715820313 2.465576171875 555.9547119140625 C 1.493408203125 565.9041137695313 1 576.017333984375 1 586.0135498046875 C 1 612.5735473632813 5.551025390625 642.0396728515625 14.52587890625 673.5938110351563 C 23.29296875 704.4161376953125 36.25927734375 737.1691284179688 53.064208984375 770.9432373046875 C 69.7138671875 804.4052734375 90.0498046875 838.7091064453125 113.5068359375 872.9011840820313 C 137.075927734375 907.2561645507813 163.6796875 941.3263549804688 192.577392578125 974.163818359375 C 260.314697265625 1003.823486328125 326.914306640625 1036.138671875 396.1842041015625 1072.955810546875 C 456.5147705078125 1105.021728515625 510.492431640625 1136.043823242188 558.115966796875 1163.4140625 C 624.1756591796875 1201.380004882813 681.226806640625 1234.16845703125 733.1541748046875 1257.2197265625 C 760.5277099609375 1269.371215820313 785.0079345703125 1278.170043945313 807.9932861328125 1284.119140625 C 820.2032470703125 1287.279418945313 832.2626953125 1289.685913085938 843.8365478515625 1291.271484375 C 855.778564453125 1292.907348632813 867.6915283203125 1293.73681640625 879.2445068359375 1293.73681640625 C 888.79150390625 1293.73681640625 898.412109375 1293.171142578125 907.838623046875 1292.055908203125 C 917.4200439453125 1290.92236328125 927.132080078125 1289.181396484375 936.7047119140625 1286.882080078125 C 946.4053955078125 1284.552001953125 956.2923583984375 1281.569091796875 966.0911865234375 1278.01611328125 C 975.9935302734375 1274.425903320313 986.137939453125 1270.133178710938 996.2435302734375 1265.25732421875 C 1037.312744140625 1245.441162109375 1080.846557617188 1214.701782226563 1129.3330078125 1171.282348632813 C 1168.523559570313 1136.187377929688 1219.958618164063 1090.237670898438 1270.25537109375 1046.055541992188 C 1320.528930664063 1001.894409179688 1364.839111328125 963.7173461914063 1405.718872070313 929.3426513671875 C 1452.71923828125 889.8211669921875 1495.248901367188 855.2526245117188 1535.73828125 823.6614379882813 C 1557.294677734375 806.8426513671875 1578.481811523438 790.72119140625 1598.711547851563 775.7449951171875 C 1619.7529296875 760.1676635742188 1640.484130859375 745.2920532226563 1660.329833984375 731.5305786132813 C 1680.871215820313 717.2870483398438 1701.147705078125 703.7626342773438 1720.59619140625 691.3338012695313 C 1740.648559570313 678.5184936523438 1760.47119140625 666.4520263671875 1779.513305664063 655.4688110351563 C 1799.085083007813 644.1802978515625 1818.454833984375 633.6773681640625 1837.08447265625 624.2517700195313 C 1856.18212890625 614.589111328125 1875.10009765625 605.755859375 1893.31298828125 597.9976196289063 C 1911.942138671875 590.061767578125 1930.409790039063 583.0050048828125 1948.203002929688 577.0232543945313 C 1966.368286132813 570.9161376953125 1984.386840820313 565.7423706054688 2001.757690429688 561.6458740234375 C 2019.463256835938 557.4705810546875 2037.033569335938 554.287353515625 2053.98046875 552.1849975585938 C 2071.228515625 550.0449829101563 2088.350830078125 548.9599609375 2104.871826171875 548.9599609375 C 2118.4423828125 548.9599609375 2131.971435546875 549.6920776367188 2145.083251953125 551.1361694335938 C 2158.35791015625 552.5979614257813 2171.59326171875 554.8323364257813 2184.4208984375 557.7767333984375 C 2197.398193359375 560.7555541992188 2210.337158203125 564.5482177734375 2222.877685546875 569.0493774414063 C 2235.5556640625 573.5994262695313 2248.195556640625 579.0061645507813 2260.446533203125 585.1188354492188 C 2273.425048828125 591.5947265625 2284.603515625 596.5108642578125 2293.671630859375 599.7305908203125 C 2302.31396484375 602.7993774414063 2309.103515625 604.3555908203125 2313.85205078125 604.3555908203125 C 2316.0185546875 604.3555908203125 2317.75244140625 604.0291137695313 2319.005615234375 603.385009765625 C 2320.15576171875 602.7943725585938 2320.89794921875 601.9464721679688 2321.27587890625 600.7929077148438 C 2321.9912109375 598.60791015625 2321.39892578125 595.3711547851563 2319.515625 591.1729125976563 C 2317.58056640625 586.859130859375 2314.285888671875 581.5740966796875 2309.72265625 575.4652709960938 C 2305.145263671875 569.3370361328125 2299.2646484375 562.344970703125 2292.244873046875 554.683837890625 C 2285.160400390625 546.9520263671875 2276.8603515625 538.4791259765625 2267.57568359375 529.5003051757813 C 2248.268798828125 510.8300170898438 2225.05419921875 490.2637939453125 2198.576171875 468.3729248046875 C 2170.4580078125 445.1258544921875 2139.481201171875 421.0755615234375 2106.506591796875 396.8896484375 C 2075.587646484375 374.21142578125 2043.110107421875 351.5565185546875 2009.97509765625 329.55322265625 C 1974.433837890625 305.9520263671875 1937.85009765625 282.9140625 1901.23974609375 261.079345703125 C 1819.515869140625 212.3382568359375 1737.332397460938 169.31298828125 1656.97265625 133.198486328125 C 1635.286499023438 123.45263671875 1613.464477539063 114.0970458984375 1592.112670898438 105.3914794921875 C 1570.081787109375 96.4088134765625 1547.955932617188 87.8758544921875 1526.349731445313 80.029052734375 C 1504.077392578125 71.9403076171875 1481.7509765625 64.36083984375 1459.990356445313 57.5008544921875 C 1437.580322265625 50.4364013671875 1415.156494140625 43.94140625 1393.341552734375 38.19677734375 C 1370.897094726563 32.2861328125 1348.479125976563 27.007080078125 1326.7109375 22.505859375 C 1304.334716796875 17.8787841796875 1282.026489257813 13.9461669921875 1260.405639648438 10.8167724609375 C 1238.20068359375 7.603271484375 1216.105346679688 5.1475830078125 1194.733032226563 3.518798828125 C 1172.802124023438 1.8472900390625 1151.022705078125 1 1130 1 M 1130 0 C 1472.620849609375 0 1868.032958984375 220.73583984375 2107.097900390625 396.083251953125 C 2262.995361328125 510.4293212890625 2351.74755859375 605.3556518554688 2313.852294921875 605.3556518554688 C 2304.287109375 605.3556518554688 2286.66064453125 599.3160400390625 2260 586.0135498046875 C 2210.642578125 561.3862915039063 2158.92578125 549.9598999023438 2104.871826171875 549.9598999023438 C 1837.69970703125 549.9598999023438 1513.075439453125 828.984130859375 1130 1172.02734375 C 1032.397827148438 1259.429809570313 955.662109375 1294.736938476563 879.244384765625 1294.736938476563 C 715.85595703125 1294.736938476563 553.852294921875 1133.411987304688 191.972900390625 974.9908447265625 C 75.125732421875 842.2664794921875 0 694.435302734375 0 586.0135498046875 C 0 262.3673095703125 505.9183349609375 0 1130 0 Z" stroke="none" fill="#707070"/>
    </g>
  </g>
</svg>
